<svg width="200" height="200" viewBox="0 0 200 200" fill="none" xmlns="http://www.w3.org/2000/svg">
<g filter="url(#filter0_i)">
<path d="M200 100C200 44.7715 155.228 0 100 0C44.7715 0 0 44.7715 0 100C0 155.228 44.7715 200 100 200C155.228 200 200 155.228 200 100Z" fill="#FDCB9E"/>
<path d="M200 100C200 44.7715 155.228 0 100 0C44.7715 0 0 44.7715 0 100C0 155.228 44.7715 200 100 200C155.228 200 200 155.228 200 100Z" fill="url(#paint0_linear)"/>
</g>
<path d="M39.4 137L50.1 68.5C46.3667 69.9667 43.4667 72.2 41.4 75.2C39.4 78.1333 38.4 81.7333 38.4 86C38.4 88 38.5333 89.6667 38.8 91C39.1333 92.3333 39.5 93.4333 39.9 94.3C40.3 95.1667 40.7 95.8667 41.1 96.4C41.5 96.8667 41.8 97.3 42 97.7C38.1333 97.7 35 96.8 32.6 95C30.2 93.2 29 90.1667 29 85.9C29 82.9667 29.7333 80.0667 31.2 77.2C32.6667 74.3333 34.6 71.8 37 69.6C39.4667 67.3333 42.2667 65.5 45.4 64.1C48.6 62.7 51.9 62 55.3 62C58.0333 62 60.7333 62.4667 63.4 63.4L72.3 116.1L83.1 63.4H97.5L102.6 137H88.2L85.1 92.1L75.8 137H62.1L54.5 92.1L47.4 137H39.4ZM141.409 71.4V94.5H142.209C143.942 94.5 145.475 94.1 146.809 93.3C148.209 92.4333 149.375 91.3 150.309 89.9C151.242 88.5 151.942 86.9333 152.409 85.2C152.875 83.4 153.109 81.5667 153.109 79.7C153.109 78.4333 152.942 77.0333 152.609 75.5C152.275 73.9667 151.575 72.5667 150.509 71.3C149.509 69.9667 148.009 68.8667 146.009 68C144.075 67.0667 141.475 66.6 138.209 66.6C135.142 66.6 132.309 67.0333 129.709 67.9C127.175 68.7667 124.975 70.0667 123.109 71.8C121.242 73.4667 119.775 75.5667 118.709 78.1C117.642 80.5667 117.109 83.4333 117.109 86.7C117.109 88.5667 117.242 90.1667 117.509 91.5C117.842 92.7667 118.209 93.8333 118.609 94.7C119.009 95.5 119.375 96.1333 119.709 96.6C120.109 97.0667 120.375 97.4333 120.509 97.7C116.509 97.7 113.342 96.7667 111.009 94.9C108.675 93.0333 107.509 90.1 107.509 86.1C107.509 82.8333 108.275 79.7667 109.809 76.9C111.342 73.9667 113.509 71.4 116.309 69.2C119.109 67 122.442 65.2667 126.309 64C130.242 62.6667 134.575 62 139.309 62C142.909 62 146.209 62.4 149.209 63.2C152.209 64 154.775 65.1667 156.909 66.7C159.109 68.2333 160.809 70.1333 162.009 72.4C163.209 74.6667 163.809 77.2333 163.809 80.1C163.809 83.0333 163.142 85.8333 161.809 88.5C160.542 91.1667 158.642 93.3667 156.109 95.1C159.375 95.9 161.809 97.5667 163.409 100.1C165.075 102.633 165.909 106.333 165.909 111.2C165.909 112.133 165.875 113.3 165.809 114.7C165.742 116.033 165.675 117.4 165.609 118.8C165.609 120.2 165.575 121.533 165.509 122.8C165.442 124.067 165.409 125.1 165.409 125.9C165.409 129.167 165.909 131.667 166.909 133.4C167.975 135.133 169.375 136.333 171.109 137C169.109 137.6 167.309 138.033 165.709 138.3C164.109 138.567 162.675 138.7 161.409 138.7C158.142 138.7 155.742 137.833 154.209 136.1C152.675 134.3 151.909 131.467 151.909 127.6C151.909 126.667 151.942 125.5 152.009 124.1C152.075 122.7 152.142 121.233 152.209 119.7C152.342 118.167 152.442 116.667 152.509 115.2C152.575 113.667 152.609 112.3 152.609 111.1C152.609 107.433 152.042 104.5 150.909 102.3C149.842 100.033 147.775 98.9 144.709 98.9C143.575 98.9 142.475 99.0333 141.409 99.3V137H127.009V105.2V73.4L141.409 71.4Z" fill="#1B262C"/>
<defs>
<filter id="filter0_i" x="0" y="0" width="220" height="220" filterUnits="userSpaceOnUse" color-interpolation-filters="sRGB">
<feFlood flood-opacity="0" result="BackgroundImageFix"/>
<feBlend mode="normal" in="SourceGraphic" in2="BackgroundImageFix" result="shape"/>
<feColorMatrix in="SourceAlpha" type="matrix" values="0 0 0 0 0 0 0 0 0 0 0 0 0 0 0 0 0 0 127 0" result="hardAlpha"/>
<feOffset dx="20" dy="20"/>
<feGaussianBlur stdDeviation="30"/>
<feComposite in2="hardAlpha" operator="arithmetic" k2="-1" k3="1"/>
<feColorMatrix type="matrix" values="0 0 0 0 0.921569 0 0 0 0 0.741176 0 0 0 0 0.576471 0 0 0 0.19 0"/>
<feBlend mode="normal" in2="shape" result="effect1_innerShadow"/>
</filter>
<linearGradient id="paint0_linear" x1="100" y1="0" x2="100" y2="200" gradientUnits="userSpaceOnUse">
<stop stop-color="#FDCB9E"/>
<stop offset="1" stop-color="#E4B78E" stop-opacity="0"/>
</linearGradient>
</defs>
</svg>
